<?xml version="1.0" encoding="utf-8"?>
<!-- Generator: Adobe Illustrator 24.0.1, SVG Export Plug-In . SVG Version: 6.00 Build 0)  -->
<svg version="1.1" id="Icon_x5F_contour" xmlns="http://www.w3.org/2000/svg" xmlns:xlink="http://www.w3.org/1999/xlink" x="0px"
	 y="0px" viewBox="0 0 192 192" style="enable-background:new 0 0 192 192;" xml:space="preserve">
<path d="M96,92c-13.23389,0-24-10.76611-24-24s10.76611-24,24-24s24,10.76611,24,24S109.23389,92,96,92z M96,52
	c-8.82227,0-16,7.17773-16,16s7.17773,16,16,16s16-7.17773,16-16S104.82227,52,96,52z M96,175.87891l-3.44629-5.84814
	c-0.32959-0.55908-32.98877-55.98242-39.97754-67.96338C47.12549,93.31787,44,80.90576,44,68c0-28.67285,23.32715-52,52-52
	s52,23.32715,52,52c0,12.90479-3.125,25.31738-8.5752,34.06738c-6.98975,11.98047-39.64893,67.4043-39.97852,67.96338L96,175.87891z
	 M96,24c-24.26172,0-44,19.73828-44,44c0,11.30469,2.76367,22.47461,7.39258,29.87988l0.06348,0.10498
	C65.02539,107.5332,87.3501,145.4375,96,160.12012c8.6499-14.68262,30.9751-52.5874,36.54492-62.13574l0.06299-0.10449
	C137.23682,90.47412,140,79.3042,140,68C140,43.73828,120.26172,24,96,24z"/>
<g>
</g>
<g>
</g>
<g>
</g>
<g>
</g>
<g>
</g>
<g>
</g>
<g>
</g>
<g>
</g>
<g>
</g>
<g>
</g>
<g>
</g>
<g>
</g>
<g>
</g>
<g>
</g>
<g>
</g>
</svg>
